<svg width="139" height="177" viewBox="0 0 139 177" fill="none" xmlns="http://www.w3.org/2000/svg">
<path d="M121.671 116.201L139 8.85H101.933V0H64.8667V8.85H18.5333C8.34 8.85 0 16.815 0 26.55V61.95C0 71.6851 8.34 79.6501 18.5333 79.6501H39.198L45.1287 116.201C34.6573 124.343 27.8 136.556 27.8 150.45V159.3C27.8 169.035 36.14 177 46.3333 177H120.467C130.66 177 139 169.035 139 159.3V150.45C139 136.556 132.143 124.343 121.671 116.201ZM18.5333 61.95V26.55H30.6727L36.418 61.95H18.5333ZM83.4 150.45C78.3033 150.45 74.1333 146.467 74.1333 141.6C74.1333 136.733 78.3033 132.75 83.4 132.75C88.4967 132.75 92.6667 136.733 92.6667 141.6C92.6667 146.467 88.4967 150.45 83.4 150.45ZM104.621 106.2H62.272L49.3913 26.55H117.409L104.621 106.2Z" fill="white"/>
</svg>
