<?xml version="1.0" encoding="utf-8"?>
<svg xmlns="http://www.w3.org/2000/svg" xmlns:xlink="http://www.w3.org/1999/xlink" style="margin: auto; background: none; display: block; shape-rendering: auto;" width="207px" height="207px" viewBox="0 0 100 100" preserveAspectRatio="xMidYMid">
<g transform="rotate(0 50 50)">
  <rect x="48.5" y="20" rx="1.5" ry="4.48" width="3" height="16" fill="#637cb5">
    <animate attributeName="opacity" values="1;0" keyTimes="0;1" dur="0.7936507936507936s" begin="-0.7605820105820106s" repeatCount="indefinite"></animate>
  </rect>
</g><g transform="rotate(15 50 50)">
  <rect x="48.5" y="20" rx="1.5" ry="4.48" width="3" height="16" fill="#637cb5">
    <animate attributeName="opacity" values="1;0" keyTimes="0;1" dur="0.7936507936507936s" begin="-0.7275132275132274s" repeatCount="indefinite"></animate>
  </rect>
</g><g transform="rotate(30 50 50)">
  <rect x="48.5" y="20" rx="1.5" ry="4.48" width="3" height="16" fill="#637cb5">
    <animate attributeName="opacity" values="1;0" keyTimes="0;1" dur="0.7936507936507936s" begin="-0.6944444444444444s" repeatCount="indefinite"></animate>
  </rect>
</g><g transform="rotate(45 50 50)">
  <rect x="48.5" y="20" rx="1.5" ry="4.48" width="3" height="16" fill="#637cb5">
    <animate attributeName="opacity" values="1;0" keyTimes="0;1" dur="0.7936507936507936s" begin="-0.6613756613756613s" repeatCount="indefinite"></animate>
  </rect>
</g><g transform="rotate(60 50 50)">
  <rect x="48.5" y="20" rx="1.5" ry="4.48" width="3" height="16" fill="#637cb5">
    <animate attributeName="opacity" values="1;0" keyTimes="0;1" dur="0.7936507936507936s" begin="-0.6283068783068783s" repeatCount="indefinite"></animate>
  </rect>
</g><g transform="rotate(75 50 50)">
  <rect x="48.5" y="20" rx="1.5" ry="4.48" width="3" height="16" fill="#637cb5">
    <animate attributeName="opacity" values="1;0" keyTimes="0;1" dur="0.7936507936507936s" begin="-0.5952380952380952s" repeatCount="indefinite"></animate>
  </rect>
</g><g transform="rotate(90 50 50)">
  <rect x="48.5" y="20" rx="1.5" ry="4.48" width="3" height="16" fill="#637cb5">
    <animate attributeName="opacity" values="1;0" keyTimes="0;1" dur="0.7936507936507936s" begin="-0.5621693121693121s" repeatCount="indefinite"></animate>
  </rect>
</g><g transform="rotate(105 50 50)">
  <rect x="48.5" y="20" rx="1.5" ry="4.48" width="3" height="16" fill="#637cb5">
    <animate attributeName="opacity" values="1;0" keyTimes="0;1" dur="0.7936507936507936s" begin="-0.5291005291005291s" repeatCount="indefinite"></animate>
  </rect>
</g><g transform="rotate(120 50 50)">
  <rect x="48.5" y="20" rx="1.5" ry="4.48" width="3" height="16" fill="#637cb5">
    <animate attributeName="opacity" values="1;0" keyTimes="0;1" dur="0.7936507936507936s" begin="-0.496031746031746s" repeatCount="indefinite"></animate>
  </rect>
</g><g transform="rotate(135 50 50)">
  <rect x="48.5" y="20" rx="1.5" ry="4.48" width="3" height="16" fill="#637cb5">
    <animate attributeName="opacity" values="1;0" keyTimes="0;1" dur="0.7936507936507936s" begin="-0.4629629629629629s" repeatCount="indefinite"></animate>
  </rect>
</g><g transform="rotate(150 50 50)">
  <rect x="48.5" y="20" rx="1.5" ry="4.48" width="3" height="16" fill="#637cb5">
    <animate attributeName="opacity" values="1;0" keyTimes="0;1" dur="0.7936507936507936s" begin="-0.4298941798941799s" repeatCount="indefinite"></animate>
  </rect>
</g><g transform="rotate(165 50 50)">
  <rect x="48.5" y="20" rx="1.5" ry="4.48" width="3" height="16" fill="#637cb5">
    <animate attributeName="opacity" values="1;0" keyTimes="0;1" dur="0.7936507936507936s" begin="-0.3968253968253968s" repeatCount="indefinite"></animate>
  </rect>
</g><g transform="rotate(180 50 50)">
  <rect x="48.5" y="20" rx="1.5" ry="4.48" width="3" height="16" fill="#637cb5">
    <animate attributeName="opacity" values="1;0" keyTimes="0;1" dur="0.7936507936507936s" begin="-0.3637566137566137s" repeatCount="indefinite"></animate>
  </rect>
</g><g transform="rotate(195 50 50)">
  <rect x="48.5" y="20" rx="1.5" ry="4.48" width="3" height="16" fill="#637cb5">
    <animate attributeName="opacity" values="1;0" keyTimes="0;1" dur="0.7936507936507936s" begin="-0.33068783068783064s" repeatCount="indefinite"></animate>
  </rect>
</g><g transform="rotate(210 50 50)">
  <rect x="48.5" y="20" rx="1.5" ry="4.48" width="3" height="16" fill="#637cb5">
    <animate attributeName="opacity" values="1;0" keyTimes="0;1" dur="0.7936507936507936s" begin="-0.2976190476190476s" repeatCount="indefinite"></animate>
  </rect>
</g><g transform="rotate(225 50 50)">
  <rect x="48.5" y="20" rx="1.5" ry="4.48" width="3" height="16" fill="#637cb5">
    <animate attributeName="opacity" values="1;0" keyTimes="0;1" dur="0.7936507936507936s" begin="-0.26455026455026454s" repeatCount="indefinite"></animate>
  </rect>
</g><g transform="rotate(240 50 50)">
  <rect x="48.5" y="20" rx="1.5" ry="4.48" width="3" height="16" fill="#637cb5">
    <animate attributeName="opacity" values="1;0" keyTimes="0;1" dur="0.7936507936507936s" begin="-0.23148148148148145s" repeatCount="indefinite"></animate>
  </rect>
</g><g transform="rotate(255 50 50)">
  <rect x="48.5" y="20" rx="1.5" ry="4.48" width="3" height="16" fill="#637cb5">
    <animate attributeName="opacity" values="1;0" keyTimes="0;1" dur="0.7936507936507936s" begin="-0.1984126984126984s" repeatCount="indefinite"></animate>
  </rect>
</g><g transform="rotate(270 50 50)">
  <rect x="48.5" y="20" rx="1.5" ry="4.48" width="3" height="16" fill="#637cb5">
    <animate attributeName="opacity" values="1;0" keyTimes="0;1" dur="0.7936507936507936s" begin="-0.16534391534391532s" repeatCount="indefinite"></animate>
  </rect>
</g><g transform="rotate(285 50 50)">
  <rect x="48.5" y="20" rx="1.5" ry="4.48" width="3" height="16" fill="#637cb5">
    <animate attributeName="opacity" values="1;0" keyTimes="0;1" dur="0.7936507936507936s" begin="-0.13227513227513227s" repeatCount="indefinite"></animate>
  </rect>
</g><g transform="rotate(300 50 50)">
  <rect x="48.5" y="20" rx="1.5" ry="4.48" width="3" height="16" fill="#637cb5">
    <animate attributeName="opacity" values="1;0" keyTimes="0;1" dur="0.7936507936507936s" begin="-0.0992063492063492s" repeatCount="indefinite"></animate>
  </rect>
</g><g transform="rotate(315 50 50)">
  <rect x="48.5" y="20" rx="1.5" ry="4.48" width="3" height="16" fill="#637cb5">
    <animate attributeName="opacity" values="1;0" keyTimes="0;1" dur="0.7936507936507936s" begin="-0.06613756613756613s" repeatCount="indefinite"></animate>
  </rect>
</g><g transform="rotate(330 50 50)">
  <rect x="48.5" y="20" rx="1.5" ry="4.48" width="3" height="16" fill="#637cb5">
    <animate attributeName="opacity" values="1;0" keyTimes="0;1" dur="0.7936507936507936s" begin="-0.03306878306878307s" repeatCount="indefinite"></animate>
  </rect>
</g><g transform="rotate(345 50 50)">
  <rect x="48.5" y="20" rx="1.5" ry="4.48" width="3" height="16" fill="#637cb5">
    <animate attributeName="opacity" values="1;0" keyTimes="0;1" dur="0.7936507936507936s" begin="0s" repeatCount="indefinite"></animate>
  </rect>
</g>
<!-- [ldio] generated by https://loading.io/ --></svg>